<?xml version="1.0" encoding="utf-8"?>
<!-- Generator: Adobe Illustrator 24.0.0, SVG Export Plug-In . SVG Version: 6.00 Build 0)  -->
<svg version="1.1" id="Layer_1" xmlns="http://www.w3.org/2000/svg" xmlns:xlink="http://www.w3.org/1999/xlink" x="0px" y="0px"
	 viewBox="0 0 960 400" style="enable-background:new 0 0 960 400;" xml:space="preserve">
<style type="text/css">
	.st0{fill:#FFFFFF;}
	.st1{fill:#3170D4;}
</style>
<title>AppGameKit Studio Logo</title>
<path class="st0" d="M906.2,184.6H898c-1.2,0.1-2.4-0.2-3.4-0.8c-0.6-0.5-0.9-1.7-0.9-3.3v-14.3c0-2.9,1.5-4.4,4.4-4.4h8.3
	c1.1,0.2,2.1-0.6,2.3-1.7c0-0.2,0-0.4,0-0.6v-20.9c0-2.9,1.5-4.4,4.6-4.4h17.4c2.9,0,4.4,1.5,4.4,4.4v21c0,1.5,0.8,2.3,2.5,2.3h16.2
	c2.9,0,4.4,1.4,4.4,4.4v14.3c0.1,1.2-0.2,2.3-0.9,3.2c-1,0.7-2.2,1.1-3.4,0.9h-16.2c-1.7,0-2.5,0.8-2.5,2.3v37.5
	c0,4.3,1,7.4,2.9,9.2s5.1,2.8,9.5,2.8h8.3c2.9,0,4.4,1.5,4.4,4.4v14.3c0.1,1.2-0.2,2.3-0.9,3.2c-1,0.7-2.2,1.1-3.4,0.9H943
	c-10.9,0-19.4-2.9-25.4-8.7c-6-5.8-9-14.1-9-24.9v-38.8c0.2-1.1-0.6-2.1-1.7-2.3C906.7,184.6,906.5,184.6,906.2,184.6z M772.9,259.3
	h-17.6c-2.9,0-4.4-1.5-4.4-4.4V129.6c0-2.9,1.5-4.8,4.4-5.5l17.6-4.7c2.9-0.8,4.4,0.3,4.4,3.2v67.7l38.4-51.7
	c1.7-2.8,4.8-4.5,8.1-4.4h20.3c1.5,0,2.5,0.4,2.8,1.4c0.3,0.9,0,2-1.1,3.4l-39.4,51.2l44,63.9c1,1.7,1.1,2.9,0.5,3.8
	c-0.6,0.9-1.9,1.4-3.8,1.4h-15.1c-4.8,0-8.1-1.5-9.8-4.4l-31.8-45.9l-13.1,15.4v30.5C777.3,257.8,775.8,259.3,772.9,259.3z
	 M861.4,259.3h17.8c1.1,0.1,2.3-0.2,3.2-0.8c0.6-0.6,0.9-1.7,0.9-3.5v-88.8c0-2.9-1.5-4.4-4.4-4.4h-17.8c-2.8,0-4.2,1.5-4.2,4.4
	v88.8C857.1,257.8,858.5,259.3,861.4,259.3z"/>
<path class="st0" d="M25.7,258.4c0.8-1,1.3-2.2,1.4-3.4l5.8-18.5h40.5l5.8,18.5c0.1,1.2,0.5,2.4,1.2,3.4c0.9,0.7,2,1.1,3.1,0.9h19.9
	c2.5,0,3.3-1.5,2.5-4.4L73.2,138.6c-0.7-2.9-2.8-4.4-6.2-4.4H39.3c-2.8-0.2-5.4,1.6-6.2,4.4L0.3,254.9c-0.8,2.9,0,4.4,2.5,4.4h19.9
	C23.8,259.4,24.9,259.1,25.7,258.4z M53.7,160.6l14.9,56.2H37.9l14.9-56.2L53.7,160.6z M202.8,195.6v29.9c0,10.9-3,19.3-8.9,25.1
	c-5.9,5.8-14.4,8.7-25.3,8.7h-26.1v46c0,2.8-1.4,4.5-4.4,5.3l-17.6,4.7c-2.9,0.8-4.4-0.2-4.4-3V166.1c0-2.9,1.5-4.4,4.6-4.4h47.9
	c10.9,0,19.4,2.9,25.3,8.7C199.8,176.3,202.8,184.7,202.8,195.6L202.8,195.6z M176.5,196.8c0-4.4-0.9-7.6-2.7-9.4
	c-1.7-1.6-3.9-2.5-6.3-2.6c-1-0.1-2.1-0.2-3.1-0.2h-19.5c-1.6,0-2.5,0.8-2.5,2.3v47.3c0,1.5,0.8,2.3,2.5,2.3h19.5
	c1,0,2.1-0.1,3.1-0.2c2.8-0.3,4.9-1.2,6.3-2.6c1.8-1.9,2.7-5,2.7-9.4V196.8z M299.6,195.6v29.9c0,10.9-3,19.3-8.9,25.1
	c-5.9,5.8-14.4,8.7-25.3,8.7h-26.1v20.1c0,2.8-1.5,4.5-4.4,5.3l-17.6,4.7c-2.9,0.8-4.4-0.2-4.4-3V166.1c0-2.9,1.5-4.4,4.6-4.4h47.9
	c10.9,0,19.4,2.9,25.3,8.7S299.6,184.7,299.6,195.6L299.6,195.6z M273.3,196.8c0-4.4-0.9-7.6-2.7-9.4c-1.3-1.4-3.4-2.3-6.3-2.6
	c-1-0.1-2-0.2-3.1-0.2h-19.5c-1.7,0-2.5,0.8-2.5,2.3v47.3c0,1.5,0.8,2.3,2.5,2.3h19.5c1,0,2.1-0.1,3.1-0.2c2.8-0.3,4.9-1.2,6.3-2.6
	c1.8-1.9,2.7-5,2.7-9.4V196.8z"/>
<path class="st1" d="M857.1,141.3v-18.1c0-2.8,1.4-4.2,4.2-4.2h18.1c2.8,0,4.2,1.3,4.2,3.9v18.3c0,2.8-1.4,4.2-4.2,4.2h-18.1
	C858.5,145.4,857.1,144,857.1,141.3z"/>
<path class="st1" d="M391.1,250.5c5.9-5.9,8.9-14.2,8.9-25V195c0-3.2-1.6-4.8-4.8-4.8H359c-2.9,0-4.4,1.4-4.4,4.3v14.1
	c0,2.9,1.5,4.4,4.4,4.4h12.5c1.1-0.2,2.1,0.6,2.3,1.7c0,0.2,0,0.4,0,0.6v8.9c0,4.4-0.9,7.6-2.7,9.4c-1.8,1.9-4.9,2.8-9.3,2.8h-13.5
	c-4.3,0-7.4-0.9-9.2-2.8s-2.8-5-2.8-9.4v-55c0-4.4,0.9-7.6,2.8-9.4s4.9-2.8,9.2-2.8h13.5c4.4,0,7.5,0.9,9.3,2.8s2.7,5,2.7,9.4v5
	c0,3.1,1.5,4.6,4.4,4.6h17.6c2.9,0,4.4-1.5,4.4-4.6V168c0-10.8-3-19.1-8.9-25c-5.9-5.9-14.3-8.8-25.1-8.8h-22
	c-10.9,0-19.4,2.9-25.3,8.7c-5.9,5.8-8.9,14.2-8.9,25.1v57.5c0,10.9,3,19.3,8.9,25.1c5.9,5.8,14.4,8.7,25.3,8.7h22
	C376.8,259.3,385.2,256.4,391.1,250.5z M739.4,258.4c0.7-0.9,1.1-2.1,0.9-3.2v-13.7c0-3-1.5-4.6-4.4-4.6h-41.9
	c-4.4,0-7.6-0.9-9.5-2.8c-1.9-1.9-2.8-4.9-2.8-9.2v-0.4c0-1.5,0.8-2.3,2.5-2.3h52.1c2.9,0,4.3-1.4,4.3-4.4v-22.2
	c0-10.9-3-19.3-8.9-25.1s-14.4-8.7-25.3-8.7h-16.4c-10.9,0-19.4,2.9-25.3,8.7s-8.9,14.2-8.9,25.1v29.9c0,10.9,3,19.3,8.9,25.1
	c5.9,5.8,14.4,8.7,25.3,8.7H736C737.2,259.4,738.5,259.1,739.4,258.4L739.4,258.4z M682.1,202.2v-5.8c0-4.4,0.9-7.5,2.7-9.3
	c1.8-1.8,4.9-2.7,9.3-2.7h8.7c4.4,0,7.5,0.9,9.3,2.7c1.8,1.8,2.7,4.9,2.7,9.3v5.8c0.2,1.1-0.6,2.1-1.7,2.3c-0.2,0-0.4,0-0.6,0h-28.2
	c-1.1,0.2-2.1-0.6-2.3-1.7C682.1,202.6,682.1,202.4,682.1,202.2z M492.3,259.3c3,0,4.6-1.4,4.6-4.4v-88.8c0-2.9-1.5-4.4-4.6-4.4
	h-47.9c-10.9,0-19.4,2.9-25.3,8.7c-5.9,5.8-8.9,14.2-8.9,25.1v29.9c0,10.9,3,19.3,8.9,25.1c5.9,5.8,14.4,8.7,25.3,8.7H492.3z
	 M470.5,186.9v47.3c0,1.5-0.8,2.3-2.5,2.3h-19.5c-1,0-2.1-0.1-3.1-0.2c-2.8-0.3-4.9-1.2-6.3-2.6c-1.8-1.9-2.7-5-2.7-9.4v-27.4
	c0-4.4,0.9-7.6,2.7-9.4c1.3-1.4,3.4-2.3,6.3-2.6c1-0.1,2-0.2,3.1-0.2h19.5C469.7,184.6,470.5,185.4,470.5,186.9z M637.6,170.5
	c-5.5-5.8-13.5-8.7-24.2-8.7h-17.9c-7.8,0-14.2,1.6-19.2,4.7c-5-3.1-11.4-4.7-19.2-4.7h-17.8c-10.7,0-18.7,2.9-24.2,8.7
	c-5.4,5.8-8.2,14.2-8.2,25.1v59.3c0,2.9,1.4,4.4,4.4,4.4H529c2.9,0,4.4-1.4,4.4-4.4v-58.1c0-4.4,0.9-7.6,2.8-9.4
	c1.9-1.9,4.9-2.8,9.2-2.8h5.8c4.3,0,7.4,0.9,9.2,2.8s2.8,5,2.8,9.4v58.1c0,2.9,1.4,4.4,4.3,4.4h17.6c2.9,0,4.3-1.5,4.3-4.4v-58.1
	c0-4.4,0.9-7.6,2.8-9.4s4.9-2.8,9.2-2.8h5.8c4.3,0,7.4,0.9,9.2,2.8c1.9,1.9,2.8,5,2.8,9.4v58.1c0,2.9,1.5,4.4,4.3,4.4h17.6
	c2.9,0,4.3-1.5,4.3-4.4v-59.3C645.8,184.7,643.1,176.3,637.6,170.5z"/>
<path class="st1" d="M313.6,281.5H737c2.1,0,3.8,1.7,3.8,3.8v110.8c0,2.1-1.7,3.8-3.8,3.8H313.6c-2.1,0-3.8-1.7-3.8-3.8V285.3
	C309.8,283.2,311.5,281.5,313.6,281.5z"/>
<path class="st0" d="M373.4,334.1c3.1,0.5,6.2,1.4,9.1,2.6c2.2,1,4.2,2.4,5.8,4.2c1.5,1.7,2.5,3.8,3.1,6c0.7,2.6,1,5.4,0.9,8.1v1.6
	c0.1,3.3-0.4,6.5-1.5,9.6c-1,2.6-2.7,5-4.9,6.7c-2.7,1.9-5.8,3.3-9.1,3.9c-4.6,0.9-9.2,1.3-13.8,1.3h-10.8c-2.1,0-4.5,0-7.2,0
	s-5.7-0.1-9.1-0.2l2.6-13.9c5.5,0.1,10.2,0.2,14,0.2h10.7c1.9,0,3.8-0.1,5.7-0.4c1.2-0.2,2.5-0.6,3.5-1.2c0.8-0.5,1.5-1.3,1.8-2.2
	c0.3-1.2,0.5-2.4,0.5-3.6c0-1.1-0.1-2.2-0.3-3.3c-0.1-0.8-0.5-1.6-1.1-2.2c-0.7-0.6-1.5-1.1-2.4-1.5c-1.3-0.5-2.6-0.8-4-1l-10.9-1.9
	c-3.4-0.5-6.7-1.4-9.9-2.7c-2.3-0.9-4.4-2.3-6.1-4.1c-1.5-1.7-2.6-3.7-3.1-5.9c-0.6-2.6-0.9-5.3-0.8-8v-1.7c-0.1-3,0.4-6,1.5-8.9
	c1-2.6,2.6-4.8,4.8-6.6c2.6-2,5.5-3.4,8.7-4.1c4.3-1,8.7-1.5,13.1-1.4h11.3c2,0,4.3,0,6.7,0.1s5.1,0.1,8.2,0.1l-2.6,14
	c-5.4-0.1-10-0.2-13.8-0.2h-10c-1.7,0-3.5,0.1-5.2,0.4c-1.1,0.2-2.2,0.5-3.2,1.1c-0.8,0.5-1.3,1.3-1.6,2.1c-0.3,1.1-0.5,2.2-0.5,3.3
	c0,1,0.1,2,0.3,3c0.1,0.8,0.5,1.5,1,2.1c0.6,0.6,1.4,1.1,2.2,1.4c1.2,0.5,2.5,0.8,3.9,1L373.4,334.1z"/>
<path class="st0" d="M463.8,303.7l-2.8,14.5h-22.3v59.7h-17.2v-59.7h-24.8l2.7-14.5H463.8z"/>
<path class="st0" d="M471.8,303.7H489v44.8c0,2.7,0.2,5.5,0.6,8.2c0.3,1.9,1,3.7,2.1,5.2c1.1,1.3,2.6,2.3,4.2,2.7
	c4.5,1,9.3,1,13.8,0c1.7-0.4,3.2-1.4,4.3-2.7c1.1-1.5,1.9-3.3,2.2-5.2c0.5-2.7,0.7-5.4,0.6-8.2v-44.8h17.1v44.7
	c0.1,4.7-0.4,9.4-1.5,14c-1.6,7.5-7.2,13.5-14.6,15.5c-9.8,2.5-20.2,2.5-30,0c-7.4-2-13-8-14.6-15.5c-1-4.6-1.5-9.3-1.5-14
	L471.8,303.7z"/>
<path class="st0" d="M545.5,303.7h30.6c5.4-0.1,10.8,0.5,15.9,2c3.8,1.1,7.3,3.2,10.1,6.1c2.6,2.9,4.4,6.4,5.3,10.2
	c1.1,4.7,1.6,9.5,1.5,14.3v8.9c0.1,4.7-0.4,9.5-1.5,14.1c-0.9,3.8-2.7,7.3-5.3,10.3c-2.7,2.9-6.2,5.1-10,6.2
	c-5.1,1.5-10.4,2.2-15.7,2.1h-30.9V303.7z M562.3,363.5h12.4c2.6,0,5.2-0.2,7.7-0.8c1.9-0.4,3.6-1.4,5-2.8c1.4-1.6,2.4-3.5,2.8-5.6
	c0.6-3,0.9-6.1,0.8-9.2v-8.7c0.1-3.1-0.2-6.1-0.8-9.2c-0.4-2.1-1.4-4-2.8-5.6c-1.4-1.4-3.1-2.4-5-2.8c-2.5-0.6-5.1-0.8-7.7-0.8
	h-12.4L562.3,363.5z"/>
<path class="st0" d="M636.4,303.7v74.1h-17.2v-74.1H636.4z"/>
<path class="st0" d="M680.8,379.8c-5.5,0.1-11-0.5-16.3-2c-8-2-14.2-8.5-15.9-16.6c-1.2-4.9-1.7-10-1.6-15.1v-10.8
	c-0.1-5,0.5-9.9,1.6-14.7c0.9-3.9,2.8-7.5,5.4-10.5c2.9-2.9,6.5-5.1,10.4-6.2c5.3-1.5,10.9-2.2,16.4-2.1c5.5-0.1,11,0.5,16.2,2
	c3.9,1.1,7.5,3.2,10.4,6.1c2.7,2.9,4.7,6.5,5.6,10.4c1.2,4.9,1.7,10,1.6,15.1v10.8c0.1,5-0.5,10-1.6,14.8
	c-1.7,8.1-7.8,14.5-15.8,16.7C691.9,379.2,686.4,379.9,680.8,379.8z M680.8,365.4c2.7,0.1,5.4-0.2,8-0.7c1.9-0.4,3.6-1.4,4.8-2.9
	c1.3-1.7,2.2-3.8,2.5-5.9c0.5-3.3,0.7-6.6,0.7-9.9v-10.3c0.1-3.3-0.2-6.6-0.7-9.9c-0.3-2.2-1.1-4.2-2.5-5.9c-1.3-1.4-3-2.4-4.8-2.9
	c-2.6-0.6-5.3-0.8-8-0.8c-2.7-0.1-5.4,0.2-8,0.7c-1.9,0.4-3.6,1.4-4.9,2.9c-1.3,1.7-2.2,3.8-2.5,5.9c-0.5,3.3-0.7,6.6-0.7,9.9v10.3
	c-0.1,3.3,0.2,6.6,0.7,9.8c0.3,2.2,1.1,4.2,2.5,5.9c1.3,1.5,3,2.5,4.9,2.9C675.5,365.2,678.2,365.4,680.8,365.4z"/>
<g>
	<path class="st0" d="M316.9,18.4h13.3c1.3,0,1.9,0.6,1.9,1.9v53.8c0,1.3-0.6,1.9-1.9,1.9h-7.3c-1.3,0-1.9-0.6-1.9-1.9V31.6h-0.4
		l-9.1,30c-0.4,1.2-1.1,1.8-2.2,1.8h-7.5c-1.1,0-1.9-0.6-2.2-1.8l-9.3-30.1h-0.4v42.5c0,0.7-0.1,1.2-0.4,1.5
		c-0.2,0.3-0.7,0.4-1.5,0.4h-7.3c-1.3,0-1.9-0.6-1.9-1.9V20.3c0-1.3,0.6-1.9,1.9-1.9h13.3c0.8,0,1.4,0.4,1.7,1.3l9.5,31.6h0.5
		l9.6-31.6C315.3,18.8,315.9,18.4,316.9,18.4z"/>
	<path class="st0" d="M349.6,76H341c-1.1,0-1.4-0.6-1.1-1.9l14.1-53.8c0.4-1.3,1.3-1.9,2.7-1.9h11.9c1.5,0,2.4,0.6,2.7,1.9
		l14.1,53.8c0.4,1.3,0,1.9-1.1,1.9h-8.6c-0.7,0-1.1-0.1-1.3-0.4c-0.2-0.3-0.4-0.8-0.5-1.5l-2.5-9.8H354l-2.5,9.8
		c-0.1,0.7-0.3,1.2-0.6,1.5S350.2,76,349.6,76z M362.6,29.2l-6.4,25.9h13.3L363,29.2H362.6z"/>
	<path class="st0" d="M393.5,74.1V20.3c0-1.3,0.6-1.9,1.9-1.9h22.1c4.7,0,8.3,1.3,10.9,3.8c2.6,2.5,3.9,6.1,3.9,10.8v28.4
		c0,4.7-1.3,8.3-3.9,10.8c-2.6,2.5-6.2,3.8-10.9,3.8h-22.1C394.1,76,393.5,75.3,393.5,74.1z M405.9,66.1h9.8c1.9,0,3.3-0.4,4.1-1.2
		c0.8-0.8,1.2-2.2,1.2-4.1V33.5c0-1.9-0.4-3.3-1.2-4.1c-0.8-0.8-2.2-1.2-4.1-1.2h-9.8c-0.7,0-1,0.3-1,1v35.9
		C404.9,65.8,405.2,66.1,405.9,66.1z"/>
	<path class="st0" d="M474.2,76h-29.3c-1.3,0-1.9-0.6-1.9-1.9V20.3c0-1.3,0.6-1.9,1.9-1.9h29.3c1.2,0,1.8,0.6,1.8,1.9v6.1
		c0,1.3-0.6,1.9-1.8,1.9h-18.7c-0.7,0-1.1,0.3-1.1,1v11.6c0,0.7,0.4,1,1.1,1h15.3c1.3,0,1.9,0.6,1.9,1.9v6.1c0,1.3-0.6,1.9-1.9,1.9
		h-15.3c-0.7,0-1.1,0.3-1.1,1v12.4c0,0.7,0.4,1,1.1,1h18.7c1.2,0,1.8,0.6,1.8,1.9v6.1C476,75.3,475.4,76,474.2,76z"/>
	<path class="st0" d="M525.5,76H513c-1.3,0-2.1-0.6-2.2-1.9l-9.6-53.8c-0.2-1.3,0.4-1.9,1.9-1.9h9.3c1.4,0,2.1,0.6,2.1,1.9l5.2,44.1
		h0.6l8.6-44.4c0.2-1.1,0.8-1.6,1.9-1.6h10c1.1,0,1.8,0.5,2,1.5l8.8,44.5h0.7l5.1-44.1c0.1-1.3,0.8-2,2.2-2h9.3c1.4,0,2.1,0.7,1.9,2
		L561,74.1c-0.2,1.3-0.9,1.9-2.1,1.9h-12.6c-1.3,0-2-0.6-2.1-1.9l-8.1-42h-0.4l-8.1,42C527.4,75.3,526.7,76,525.5,76z"/>
	<path class="st0" d="M589.7,20.3v53.8c0,1.3-0.6,1.9-1.9,1.9h-7.6c-1.3,0-1.9-0.6-1.9-1.9V20.3c0-1.3,0.6-1.9,1.9-1.9h7.6
		C589.1,18.4,589.7,19,589.7,20.3z"/>
	<path class="st0" d="M619.6,76h-7.5c-1.3,0-2-0.6-2-1.9V29.2c0-0.7-0.3-1-1-1h-10.2c-1.3,0-1.9-0.6-1.9-1.9v-6.1
		c0-1.3,0.6-1.9,1.9-1.9h33.8c1.3,0,1.9,0.6,1.9,1.9v6.1c0,1.3-0.6,1.9-1.9,1.9h-10.2c-0.7,0-1.1,0.3-1.1,1v44.9
		C621.5,75.3,620.8,76,619.6,76z"/>
	<path class="st0" d="M650.9,76h-7.6c-1.3,0-1.9-0.6-1.9-1.9V20.3c0-1.3,0.6-1.9,1.9-1.9h7.6c1.3,0,1.9,0.6,1.9,1.9v21
		c0,0.7,0.4,1,1.1,1H669c0.7,0,1-0.3,1-1v-21c0-1.3,0.6-1.9,1.9-1.9h7.6c1.3,0,1.9,0.6,1.9,1.9v53.8c0,1.3-0.6,1.9-1.9,1.9h-7.6
		c-1.3,0-1.9-0.6-1.9-1.9v-21c0-0.7-0.3-1-1-1h-15.1c-0.7,0-1.1,0.3-1.1,1v21C652.8,75.3,652.2,76,650.9,76z"/>
</g>
</svg>
